<svg width="533" height="374" viewBox="0 0 533 374" fill="none" xmlns="http://www.w3.org/2000/svg">
<g clip-path="url(#clip0_5_34)">
<path d="M264.156 31.0525C259.833 32.4834 257.305 36.9808 256.958 43.8496C256.856 45.8121 256.917 46.3845 257.366 48.2448C257.978 50.7388 259.038 53.7847 261.444 59.8971C263.646 65.5189 264.034 66.7659 264.931 71.2428C265.889 76.0469 267.092 82.8338 267.092 83.3653C267.092 83.6107 267.174 83.8355 267.255 83.8969C267.357 83.9582 267.765 81.9957 268.193 79.563C270.11 68.5035 270.559 66.725 273.474 58.875C275.045 54.582 276.309 50.7388 276.819 48.6536C277.349 46.4663 277.287 42.112 276.717 39.3522C275.86 35.3045 273.78 32.3403 271.028 31.2569C269.335 30.6027 265.848 30.5005 264.156 31.0525Z" fill="#560808"/>
<path d="M232.285 50.0642C227.738 51.6383 226.229 56.5854 229.166 60.306C230.593 62.105 233.57 63.6382 239.871 65.8255C244.03 67.2565 246.355 68.3604 248.863 70.0367C250.841 71.3451 253.757 74.0435 255.306 76.006L256.367 77.3348L256.652 76.6397C257.631 74.2684 255.551 68.0333 251.922 62.4525C249.454 58.6706 246.212 55.0318 243.337 52.8444C241.91 51.761 238.872 50.2277 237.485 49.9007C236.037 49.5531 233.509 49.6349 232.285 50.0642Z" fill="#560808"/>
<path d="M295.292 50.1664C292.377 51.1272 289.563 53.0897 286.524 56.2788C281.875 61.1441 277.777 68.4422 276.859 73.4506C276.635 74.7385 276.737 76.517 277.084 77.069C277.247 77.3347 277.328 77.2939 277.634 76.8646C278.47 75.6584 280.448 73.5324 281.672 72.4898C284.608 69.9958 286.586 68.9328 292.58 66.5614C300.227 63.5564 301.838 62.7591 303.755 61.0215C305.263 59.6518 305.936 58.1799 305.936 56.2174C305.936 55.0317 305.834 54.4594 305.467 53.7439C304.733 52.2311 303.693 51.1885 302.205 50.4526C300.981 49.8393 300.655 49.778 298.8 49.7371C297.107 49.6758 296.516 49.7575 295.292 50.1664Z" fill="#560808"/>
<path d="M189.404 54.5821C184.551 55.2158 180.289 57.2396 177.7 60.1629C174.784 63.4133 173.377 68.3196 173.907 73.2462C174.661 80.1559 178.556 84.8577 185.224 86.9429C187.773 87.7401 189.669 87.965 192.707 87.8423C195.603 87.7197 197.112 87.413 201.292 86.1252C202.923 85.6141 203.759 85.4505 203.902 85.5936C204.208 85.9003 189.282 99.188 182.859 104.299C172.989 112.169 167.137 115.031 159.552 115.706C153.537 116.258 148.582 114.827 145.34 111.617C142.852 109.164 141.996 107.058 141.996 103.44C141.996 100.742 142.322 99.4742 143.464 97.7775C144.239 96.6327 144.973 95.9785 146.319 95.2835C148.276 94.3022 151.946 93.9138 153.476 94.568C154.291 94.8951 155.352 95.815 155.352 96.1625C155.352 96.2852 154.883 96.6327 154.332 96.9393C152.986 97.6957 152.436 98.7587 152.415 100.578C152.395 102.766 153.313 104.053 155.678 105.116C157.024 105.73 159.674 105.771 161.163 105.198C163.508 104.299 164.874 102.847 165.588 100.496C166.791 96.5305 164.65 92.4828 160.205 90.3568C158.064 89.3142 156.228 88.9258 153.496 88.9258C145.421 88.9258 139.528 92.4419 137.53 98.4725C137.041 99.924 137 100.353 137 103.358C137 106.261 137.061 106.793 137.489 108.06C139.528 114.111 144.096 117.893 151.07 119.283C153.333 119.733 157.921 119.897 160.449 119.61C167.933 118.752 174.804 115.665 182.981 109.471C186.672 106.67 188.201 105.362 195.827 98.4317C199.089 95.4675 202.27 92.6055 202.923 92.074C204.534 90.7452 204.717 90.9905 203.902 93.4028C202.535 97.4709 202.168 102.827 203.025 106.098C204.289 110.861 207.307 114.908 211.242 117.116C214.688 119.038 219.643 119.794 224.272 119.079C226.719 118.711 228.065 118.302 229.94 117.382C233.121 115.808 235.487 113.477 236.934 110.493C238.199 107.876 238.362 106.2 237.587 103.461C236.996 101.294 235.935 99.556 234.182 97.8184C231.633 95.263 229.104 94.2409 225.393 94.2409C221.315 94.2409 218.297 95.6923 216.829 98.3499C216.279 99.3516 216.218 99.6378 216.218 101.294C216.218 102.909 216.299 103.277 216.789 104.319C217.726 106.22 218.991 106.915 221.519 106.915C223.497 106.915 224.924 106.22 225.781 104.81C226.291 103.972 226.393 103.563 226.474 102.111C226.535 101.13 226.474 100.128 226.331 99.74L226.107 99.0858L227.127 99.188C228.554 99.3311 230.613 100.394 231.592 101.519C233.876 104.135 233.917 108.408 231.653 111.249C230.144 113.171 227.534 114.745 224.72 115.44C222.763 115.931 218.95 115.869 216.829 115.317C210.957 113.805 207.837 109.798 207.266 103.031C207.123 101.375 207.429 98.0024 207.878 96.1421C209.631 89.1507 214.607 84.5306 222.722 82.3841C226.596 81.362 229.166 81.0554 234.161 81.0758C238.239 81.0758 238.872 81.1167 241.196 81.6278C254.328 84.4284 261.954 91.706 263.034 102.438C263.544 107.651 262.239 112.271 259.629 114.438C256.55 117.014 250.902 117.464 248.17 115.358C246.62 114.173 246.029 111.351 246.967 109.675C247.456 108.817 249.128 107.529 249.781 107.529C250.066 107.529 250.168 107.672 250.168 108.081C250.168 109.062 251.086 110.309 252.105 110.697C253.798 111.351 255.47 110.575 256.387 108.653C256.856 107.713 256.938 107.345 256.815 106.568C256.571 104.708 255.123 103.072 253.145 102.418C252.656 102.254 251.718 102.193 250.678 102.254C246.498 102.479 242.685 105.852 242.297 109.696C241.787 114.561 244.764 118.445 249.801 119.508C251.575 119.897 255.245 119.774 257.305 119.283C261.668 118.22 265.114 115.174 266.603 111.065C266.909 110.227 267.255 109.593 267.357 109.634C267.48 109.675 267.724 110.166 267.928 110.759C269.029 114.009 271.333 116.707 274.249 118.138C276.859 119.406 278.144 119.692 281.468 119.692C283.629 119.692 284.608 119.59 285.525 119.304C290.317 117.852 292.621 114.724 292.336 110.064C292.213 108.06 291.643 106.772 290.236 105.362C287.993 103.113 284.139 102.07 281.223 102.929C280.632 103.113 279.816 103.583 279.265 104.074C277.451 105.648 277.328 107.815 278.939 109.655C280.366 111.27 281.998 111.392 283.405 109.982C283.874 109.512 284.281 108.837 284.424 108.367C284.669 107.406 284.771 107.386 285.811 107.917C287.299 108.694 288.176 110.104 288.176 111.822C288.196 114.05 286.545 115.788 283.813 116.401C279.123 117.484 274.779 115.563 272.883 111.556C271.945 109.552 271.578 107.713 271.578 104.748C271.578 98.5339 273.536 93.5254 277.614 89.4573C281.345 85.7163 287.136 82.8339 293.641 81.5255C295.639 81.1167 296.536 81.0554 300.329 81.0758C310.545 81.0962 317.804 83.4676 322.392 88.2716C325.96 92.0331 327.734 97.2664 327.367 103.133C327.143 107.079 326.205 109.532 324.064 111.822C321.882 114.132 319.149 115.317 315.051 115.726C309.444 116.299 303.918 113.723 302.001 109.614C301.512 108.571 301.45 108.203 301.45 106.302C301.45 104.421 301.512 104.013 302.001 103.011C302.98 100.905 304.978 99.4129 307.139 99.188L308.118 99.0858L307.975 99.9444C307.812 100.987 308.2 103.501 308.709 104.483C309.199 105.464 310.341 106.425 311.279 106.691C312.359 106.997 314.5 106.977 315.275 106.65C317.192 105.832 318.293 104.033 318.436 101.457C318.517 99.9444 318.477 99.6582 317.987 98.6565C316.621 95.8559 313.399 94.2409 309.199 94.2409C307.017 94.2409 305.447 94.6089 303.489 95.5492C298.494 98.0024 295.517 104.319 297.066 109.185C298.596 113.948 303.143 117.627 309.097 118.915C311.646 119.467 316.519 119.406 318.946 118.813C325.267 117.239 329.712 112.864 331.547 106.404C332.648 102.52 332.138 97.0824 330.262 92.953C328.998 90.1932 329.834 90.6839 336.013 96.2852C345.392 104.789 348.92 107.774 353.141 110.799C359.401 115.276 365.599 118.138 371.594 119.324C374.163 119.835 380.484 119.835 382.911 119.324C389.66 117.914 393.983 114.786 396.45 109.552C397.551 107.242 397.898 105.709 397.878 103.236C397.857 97.0007 394.411 92.1966 388.478 90.1319C385.276 89.028 379.975 88.5783 377.304 89.212C371.839 90.4999 368.128 94.9564 368.821 99.3516C369.249 101.989 370.697 103.931 373.083 105.035C374.061 105.484 374.53 105.587 376.08 105.587C378.405 105.587 379.771 105.137 380.974 103.972C383.135 101.886 382.646 98.2272 380.015 96.878C379.587 96.6531 379.241 96.4078 379.241 96.3056C379.241 95.9172 380.117 95.0586 380.933 94.6702C382.646 93.8321 386.275 94.2205 388.661 95.5084C391.373 96.9598 392.698 99.556 392.698 103.44C392.698 106.731 391.699 109.328 389.579 111.454C386.622 114.418 382.85 115.747 377.405 115.747C367.21 115.747 359.808 111.679 341.824 96.1012C332.995 88.4761 330.079 85.7981 330.283 85.5936C330.425 85.4505 331.425 85.655 333.504 86.2274C339.928 88.0468 342.782 88.3125 346.881 87.4744C351 86.6362 353.773 85.2257 356.403 82.5886C358.401 80.6056 359.584 78.5613 360.318 75.9038C360.909 73.7369 360.95 68.8715 360.4 66.7455C359.523 63.2906 357.382 60.0811 354.69 58.18C349.43 54.439 341.436 53.3555 335.605 55.6246C330.242 57.6893 326.429 62.6978 326.959 66.9294C327.448 70.8136 329.977 73.1031 333.973 73.3485C336.42 73.4916 337.827 73.0623 339.091 71.7948C340.193 70.6705 340.6 69.5461 340.437 67.9516C340.172 65.294 338.439 63.8222 335.523 63.7199C334.83 63.6995 334.381 63.5768 334.381 63.4542C334.381 63.1067 335.768 61.3077 336.563 60.6331C339.397 58.2209 345.678 58.364 350.245 60.9397C351.958 61.9005 354.181 64.2515 354.955 65.9073C357.3 70.7931 356.097 77.253 352.264 80.6465C351.04 81.73 348.471 83.0587 346.718 83.5085C342.986 84.4897 338.133 83.9173 330.915 81.6686C325.185 79.8697 315.438 77.9685 307.466 77.0486C302.47 76.4966 297.107 76.4353 293.967 76.9464C284.281 78.4796 275.493 83.3858 270.966 89.764C269.988 91.1745 268.377 94.2 267.745 95.8763L267.459 96.5918L267.255 96.0807C265.481 91.9309 263.218 88.4761 260.649 86.0638C253.308 79.1951 242.216 75.4336 231.653 76.2104C223.701 76.8237 211.67 79.1746 203.473 81.7504C198.294 83.3654 193.89 84.1422 190.933 83.9582C187.181 83.7129 184.469 82.5477 182.043 80.1354C179.555 77.6619 178.576 75.1679 178.576 71.3451C178.556 67.6858 179.514 65.3145 181.961 62.8613C184.347 60.4491 187.446 59.1408 191.158 58.9363C195.093 58.7115 197.927 59.8563 199.64 62.3503C200.048 62.9636 200.415 63.5155 200.415 63.5768C200.415 63.6382 199.803 63.7199 199.049 63.7404C196.459 63.8017 194.807 65.0692 194.298 67.3587C193.543 70.7931 195.99 73.3893 200.007 73.3893C203.555 73.3893 206.124 71.8357 207.185 69.035C209.326 63.3929 204.697 57.0352 197.03 55.0727C194.848 54.5207 191.504 54.2959 189.404 54.5821Z" fill="#560808"/>
</g>
<g clip-path="url(#clip1_5_34)">
<path d="M269.844 342.948C274.167 341.517 276.695 337.019 277.042 330.15C277.144 328.188 277.083 327.616 276.634 325.755C276.022 323.261 274.962 320.215 272.556 314.103C270.354 308.481 269.966 307.234 269.069 302.757C268.111 297.953 266.908 291.166 266.908 290.635C266.908 290.389 266.826 290.164 266.745 290.103C266.643 290.042 266.235 292.004 265.807 294.437C263.89 305.497 263.441 307.275 260.526 315.125C258.955 319.418 257.691 323.261 257.181 325.346C256.651 327.534 256.713 331.888 257.283 334.648C258.14 338.695 260.22 341.66 262.972 342.743C264.665 343.397 268.152 343.499 269.844 342.948Z" fill="#560808"/>
<path d="M301.715 323.936C306.262 322.362 307.771 317.415 304.834 313.694C303.407 311.895 300.43 310.362 294.129 308.174C289.97 306.743 287.645 305.64 285.137 303.963C283.159 302.655 280.243 299.956 278.694 297.994L277.633 296.665L277.348 297.36C276.369 299.732 278.449 305.967 282.078 311.548C284.546 315.329 287.788 318.968 290.663 321.156C292.09 322.239 295.128 323.772 296.515 324.099C297.963 324.447 300.491 324.365 301.715 323.936Z" fill="#560808"/>
<path d="M238.708 323.834C241.623 322.873 244.437 320.91 247.476 317.721C252.125 312.856 256.223 305.558 257.141 300.549C257.365 299.261 257.263 297.483 256.916 296.931C256.753 296.665 256.672 296.706 256.366 297.135C255.53 298.341 253.552 300.468 252.328 301.51C249.392 304.004 247.414 305.067 241.42 307.439C233.773 310.444 232.162 311.241 230.245 312.978C228.737 314.348 228.064 315.82 228.064 317.783C228.064 318.968 228.166 319.541 228.533 320.256C229.267 321.769 230.307 322.811 231.795 323.547C233.019 324.161 233.345 324.222 235.2 324.263C236.893 324.324 237.484 324.242 238.708 323.834Z" fill="#560808"/>
<path d="M344.596 319.418C349.449 318.784 353.711 316.76 356.3 313.837C359.216 310.587 360.623 305.68 360.093 300.754C359.339 293.844 355.444 289.142 348.776 287.057C346.227 286.26 344.331 286.035 341.293 286.158C338.397 286.28 336.888 286.587 332.708 287.875C331.077 288.386 330.241 288.549 330.098 288.406C329.792 288.1 344.718 274.812 351.141 269.701C361.011 261.831 366.863 258.969 374.448 258.294C380.463 257.742 385.418 259.173 388.66 262.383C391.148 264.836 392.004 266.942 392.004 270.56C392.004 273.258 391.678 274.526 390.536 276.223C389.761 277.367 389.027 278.021 387.681 278.717C385.724 279.698 382.054 280.086 380.524 279.432C379.709 279.105 378.648 278.185 378.648 277.837C378.648 277.715 379.117 277.367 379.668 277.061C381.014 276.304 381.564 275.241 381.585 273.422C381.605 271.234 380.687 269.947 378.322 268.884C376.976 268.27 374.326 268.229 372.837 268.802C370.492 269.701 369.126 271.153 368.412 273.504C367.209 277.47 369.35 281.517 373.795 283.643C375.936 284.686 377.772 285.074 380.504 285.074C388.579 285.074 394.472 281.558 396.47 275.527C396.959 274.076 397 273.647 397 270.642C397 267.739 396.939 267.207 396.511 265.94C394.472 259.889 389.904 256.107 382.93 254.717C380.667 254.267 376.079 254.103 373.551 254.39C366.067 255.248 359.196 258.335 351.019 264.529C347.328 267.33 345.799 268.638 338.173 275.568C334.911 278.533 331.73 281.395 331.077 281.926C329.466 283.255 329.283 283.009 330.098 280.597C331.465 276.529 331.832 271.173 330.975 267.902C329.711 263.139 326.693 259.092 322.758 256.884C319.312 254.962 314.357 254.206 309.728 254.921C307.281 255.289 305.935 255.698 304.06 256.618C300.879 258.192 298.513 260.523 297.066 263.507C295.801 266.124 295.638 267.8 296.413 270.539C297.004 272.706 298.065 274.444 299.818 276.182C302.367 278.737 304.896 279.759 308.607 279.759C312.685 279.759 315.703 278.308 317.171 275.65C317.721 274.648 317.782 274.362 317.782 272.706C317.782 271.091 317.701 270.723 317.211 269.681C316.274 267.78 315.009 267.085 312.481 267.085C310.503 267.085 309.076 267.78 308.219 269.19C307.709 270.028 307.607 270.437 307.526 271.889C307.465 272.87 307.526 273.872 307.669 274.26L307.893 274.914L306.873 274.812C305.446 274.669 303.387 273.606 302.408 272.481C300.124 269.865 300.083 265.592 302.347 262.751C303.856 260.829 306.466 259.255 309.28 258.56C311.237 258.069 315.05 258.131 317.171 258.683C323.043 260.195 326.163 264.202 326.734 270.969C326.877 272.625 326.571 275.998 326.122 277.858C324.369 284.849 319.393 289.469 311.278 291.616C307.404 292.638 304.834 292.945 299.839 292.924C295.761 292.924 295.128 292.883 292.804 292.372C279.672 289.572 272.046 282.294 270.966 271.562C270.456 266.349 271.761 261.729 274.371 259.562C277.45 256.986 283.098 256.536 285.83 258.642C287.38 259.827 287.971 262.649 287.033 264.325C286.544 265.183 284.872 266.471 284.219 266.471C283.934 266.471 283.832 266.328 283.832 265.919C283.832 264.938 282.914 263.691 281.895 263.303C280.202 262.649 278.53 263.425 277.613 265.347C277.144 266.287 277.062 266.655 277.185 267.432C277.429 269.292 278.877 270.928 280.855 271.582C281.344 271.746 282.282 271.807 283.322 271.746C287.502 271.521 291.315 268.148 291.703 264.304C292.213 259.439 289.236 255.555 284.199 254.492C282.425 254.103 278.755 254.226 276.695 254.717C272.332 255.78 268.886 258.826 267.397 262.935C267.091 263.773 266.745 264.407 266.643 264.366C266.52 264.325 266.276 263.834 266.072 263.241C264.971 259.991 262.667 257.293 259.751 255.862C257.141 254.594 255.856 254.308 252.532 254.308C250.371 254.308 249.392 254.41 248.475 254.696C243.683 256.148 241.379 259.276 241.664 263.936C241.787 265.94 242.357 267.228 243.764 268.638C246.007 270.887 249.861 271.93 252.777 271.071C253.368 270.887 254.184 270.417 254.735 269.926C256.549 268.352 256.672 266.185 255.061 264.345C253.634 262.73 252.002 262.608 250.595 264.018C250.126 264.488 249.719 265.163 249.576 265.633C249.331 266.594 249.229 266.614 248.189 266.083C246.701 265.306 245.824 263.896 245.824 262.178C245.804 259.95 247.455 258.212 250.187 257.599C254.877 256.516 259.221 258.437 261.117 262.444C262.055 264.448 262.422 266.287 262.422 269.252C262.422 275.466 260.464 280.475 256.386 284.543C252.655 288.284 246.864 291.166 240.359 292.474C238.361 292.883 237.464 292.945 233.671 292.924C223.455 292.904 216.196 290.532 211.608 285.728C208.04 281.967 206.266 276.734 206.633 270.867C206.857 266.921 207.795 264.468 209.936 262.178C212.118 259.868 214.851 258.683 218.949 258.274C224.556 257.701 230.082 260.277 231.999 264.386C232.488 265.429 232.55 265.797 232.55 267.698C232.55 269.579 232.488 269.987 231.999 270.989C231.02 273.095 229.022 274.587 226.861 274.812L225.882 274.914L226.025 274.056C226.188 273.013 225.8 270.499 225.291 269.517C224.801 268.536 223.659 267.575 222.721 267.309C221.641 267.003 219.5 267.023 218.725 267.35C216.808 268.168 215.707 269.967 215.564 272.543C215.483 274.056 215.523 274.342 216.013 275.343C217.379 278.144 220.601 279.759 224.801 279.759C226.983 279.759 228.553 279.391 230.511 278.451C235.506 275.998 238.483 269.681 236.934 264.815C235.404 260.052 230.857 256.373 224.903 255.085C222.354 254.533 217.481 254.594 215.054 255.187C208.733 256.761 204.288 261.136 202.453 267.596C201.352 271.48 201.862 276.918 203.738 281.047C205.002 283.807 204.166 283.316 197.987 277.715C188.608 269.211 185.08 266.226 180.859 263.201C174.599 258.724 168.401 255.862 162.406 254.676C159.837 254.165 153.516 254.165 151.089 254.676C144.34 256.086 140.017 259.214 137.55 264.448C136.449 266.758 136.102 268.291 136.122 270.764C136.143 276.999 139.589 281.803 145.522 283.868C148.724 284.972 154.025 285.422 156.696 284.788C162.161 283.5 165.872 279.044 165.179 274.648C164.751 272.011 163.303 270.069 160.917 268.965C159.939 268.516 159.47 268.413 157.92 268.413C155.595 268.413 154.229 268.863 153.026 270.028C150.865 272.114 151.354 275.773 153.985 277.122C154.413 277.347 154.759 277.592 154.759 277.694C154.759 278.083 153.883 278.941 153.067 279.33C151.354 280.168 147.725 279.78 145.339 278.492C142.627 277.04 141.302 274.444 141.302 270.56C141.302 267.269 142.301 264.672 144.421 262.546C147.378 259.582 151.15 258.253 156.595 258.253C166.79 258.253 174.192 262.321 192.176 277.899C201.005 285.524 203.921 288.202 203.717 288.406C203.575 288.549 202.575 288.345 200.496 287.773C194.072 285.953 191.218 285.687 187.119 286.526C183 287.364 180.227 288.774 177.597 291.411C175.599 293.394 174.416 295.439 173.682 298.096C173.091 300.263 173.05 305.128 173.6 307.255C174.477 310.709 176.618 313.919 179.31 315.82C184.57 319.561 192.564 320.645 198.395 318.375C203.758 316.311 207.571 311.302 207.041 307.071C206.552 303.186 204.023 300.897 200.027 300.652C197.58 300.508 196.173 300.938 194.909 302.205C193.807 303.33 193.4 304.454 193.563 306.048C193.828 308.706 195.561 310.178 198.477 310.28C199.17 310.3 199.619 310.423 199.619 310.546C199.619 310.893 198.232 312.692 197.437 313.367C194.603 315.779 188.322 315.636 183.755 313.06C182.042 312.099 179.819 309.749 179.045 308.093C176.7 303.207 177.903 296.747 181.736 293.353C182.96 292.27 185.529 290.941 187.282 290.492C191.014 289.51 195.867 290.083 203.085 292.331C208.815 294.13 218.562 296.031 226.534 296.951C231.53 297.503 236.893 297.565 240.033 297.054C249.719 295.52 258.507 290.614 263.034 284.236C264.012 282.826 265.623 279.8 266.255 278.124L266.541 277.408L266.745 277.919C268.519 282.069 270.782 285.524 273.351 287.936C280.692 294.805 291.784 298.566 302.347 297.79C310.299 297.176 322.33 294.825 330.527 292.25C335.706 290.635 340.11 289.858 343.067 290.042C346.819 290.287 349.531 291.452 351.957 293.865C354.445 296.338 355.424 298.832 355.424 302.655C355.444 306.314 354.486 308.686 352.039 311.139C349.653 313.551 346.554 314.859 342.842 315.064C338.907 315.289 336.073 314.144 334.36 311.65C333.952 311.036 333.585 310.484 333.585 310.423C333.585 310.362 334.197 310.28 334.951 310.26C337.541 310.198 339.193 308.931 339.702 306.641C340.457 303.207 338.01 300.611 333.993 300.611C330.445 300.611 327.876 302.164 326.815 304.965C324.674 310.607 329.303 316.965 336.97 318.927C339.152 319.479 342.496 319.704 344.596 319.418Z" fill="#560808"/>
</g>
<path d="M96.0288 182.595H109.898C109.62 187.141 108.368 191.177 106.141 194.702C103.945 198.228 100.868 200.98 96.9102 202.959C92.9827 204.938 88.2513 205.928 82.7158 205.928C78.3864 205.928 74.5054 205.186 71.0728 203.701C67.6401 202.186 64.7023 200.021 62.2593 197.207C59.8472 194.393 58.0072 190.991 56.7393 187.002C55.4714 183.013 54.8374 178.544 54.8374 173.596V168.911C54.8374 163.963 55.4868 159.495 56.7856 155.505C58.1154 151.485 60.0018 148.068 62.4448 145.254C64.9188 142.44 67.8721 140.275 71.3047 138.76C74.7373 137.244 78.5719 136.487 82.8086 136.487C88.4368 136.487 93.1838 137.507 97.0493 139.548C100.946 141.589 103.961 144.403 106.095 147.991C108.259 151.578 109.558 155.66 109.991 160.237H96.0752C95.9206 157.515 95.3794 155.212 94.4517 153.325C93.5239 151.408 92.1169 149.97 90.2305 149.011C88.375 148.022 85.901 147.527 82.8086 147.527C80.4893 147.527 78.4637 147.96 76.7319 148.826C75.0002 149.692 73.5467 151.006 72.3716 152.769C71.1965 154.531 70.3151 156.758 69.7275 159.448C69.1709 162.108 68.8926 165.231 68.8926 168.818V173.596C68.8926 177.091 69.1554 180.168 69.6812 182.827C70.2069 185.456 71.0109 187.682 72.0933 189.507C73.2065 191.3 74.6291 192.661 76.3608 193.589C78.1235 194.486 80.2419 194.934 82.7158 194.934C85.6227 194.934 88.0194 194.47 89.9058 193.542C91.7922 192.615 93.2301 191.239 94.2197 189.414C95.2402 187.59 95.8433 185.317 96.0288 182.595ZM145.292 193.682V171.323C145.292 169.715 145.029 168.339 144.503 167.195C143.977 166.02 143.158 165.107 142.044 164.458C140.962 163.809 139.555 163.484 137.823 163.484C136.339 163.484 135.056 163.747 133.973 164.272C132.891 164.767 132.056 165.494 131.468 166.453C130.881 167.38 130.587 168.478 130.587 169.746H117.228C117.228 167.612 117.722 165.587 118.712 163.669C119.701 161.752 121.139 160.067 123.026 158.613C124.912 157.129 127.154 155.969 129.752 155.134C132.381 154.299 135.318 153.882 138.565 153.882C142.462 153.882 145.925 154.531 148.956 155.83C151.987 157.129 154.368 159.077 156.1 161.675C157.862 164.272 158.744 167.52 158.744 171.416V192.893C158.744 195.645 158.914 197.903 159.254 199.666C159.594 201.397 160.089 202.913 160.738 204.211V205H147.24C146.59 203.639 146.096 201.938 145.755 199.897C145.446 197.826 145.292 195.754 145.292 193.682ZM147.054 174.431L147.147 181.992H139.679C137.916 181.992 136.385 182.193 135.086 182.595C133.788 182.997 132.721 183.569 131.886 184.312C131.051 185.023 130.432 185.858 130.03 186.816C129.659 187.775 129.474 188.826 129.474 189.971C129.474 191.115 129.736 192.151 130.262 193.079C130.788 193.975 131.546 194.687 132.535 195.212C133.525 195.707 134.684 195.955 136.014 195.955C138.024 195.955 139.771 195.553 141.256 194.749C142.74 193.944 143.884 192.955 144.688 191.78C145.523 190.605 145.956 189.491 145.987 188.44L149.513 194.099C149.018 195.367 148.338 196.681 147.472 198.042C146.637 199.403 145.57 200.686 144.271 201.892C142.972 203.067 141.41 204.041 139.586 204.814C137.761 205.557 135.597 205.928 133.092 205.928C129.907 205.928 127.015 205.294 124.417 204.026C121.851 202.727 119.81 200.949 118.294 198.691C116.81 196.403 116.068 193.805 116.068 190.898C116.068 188.27 116.563 185.935 117.552 183.894C118.542 181.853 119.995 180.137 121.913 178.745C123.861 177.323 126.288 176.256 129.195 175.544C132.102 174.802 135.473 174.431 139.308 174.431H147.054ZM203.414 175.081V185.471H177.901V175.081H203.414ZM182.354 154.81V205H168.995V154.81H182.354ZM212.459 154.81V205H199.054V154.81H212.459ZM240.57 186.074L219.696 154.81H236.256L246.925 173.735H256.527L254.903 186.074H240.57ZM247.11 183.801L235.653 205H219.557L236.209 177.354L247.11 183.801ZM265.201 154.81V205H251.842V154.81H265.201ZM297.486 154.81L276.612 186.074H262.279L260.655 173.735H270.257L280.88 154.81H297.486ZM281.483 205L270.025 183.801L281.344 177.354L297.904 205H281.483ZM313.629 169.7H328.194C332.771 169.7 336.668 170.457 339.884 171.973C343.131 173.457 345.605 175.529 347.306 178.188C349.037 180.848 349.903 183.925 349.903 187.419C349.903 189.955 349.409 192.306 348.419 194.47C347.46 196.604 346.053 198.459 344.198 200.037C342.342 201.614 340.069 202.835 337.379 203.701C334.688 204.567 331.627 205 328.194 205H305.279V154.81H318.685V194.609H328.194C330.204 194.609 331.812 194.285 333.019 193.635C334.256 192.955 335.152 192.074 335.709 190.991C336.297 189.909 336.59 188.734 336.59 187.466C336.59 186.136 336.297 184.93 335.709 183.848C335.152 182.734 334.256 181.838 333.019 181.157C331.812 180.477 330.204 180.137 328.194 180.137H313.629V169.7ZM371.334 154.81V205H357.975V154.81H371.334ZM396.429 164.458V224.297H383.07V154.81H395.455L396.429 164.458ZM428.204 179.348V180.322C428.204 183.971 427.771 187.358 426.905 190.481C426.07 193.604 424.833 196.326 423.194 198.645C421.555 200.933 419.514 202.727 417.071 204.026C414.659 205.294 411.876 205.928 408.722 205.928C405.66 205.928 403.001 205.309 400.743 204.072C398.486 202.835 396.584 201.104 395.038 198.877C393.522 196.619 392.301 194.006 391.373 191.038C390.445 188.069 389.734 184.884 389.239 181.482V178.931C389.734 175.282 390.445 171.942 391.373 168.911C392.301 165.85 393.522 163.206 395.038 160.979C396.584 158.722 398.47 156.974 400.697 155.737C402.954 154.5 405.598 153.882 408.629 153.882C411.814 153.882 414.613 154.485 417.025 155.691C419.468 156.897 421.509 158.629 423.148 160.886C424.818 163.144 426.07 165.834 426.905 168.958C427.771 172.081 428.204 175.544 428.204 179.348ZM414.798 180.322V179.348C414.798 177.214 414.613 175.251 414.242 173.457C413.902 171.632 413.345 170.04 412.572 168.679C411.83 167.319 410.84 166.267 409.603 165.525C408.397 164.752 406.928 164.365 405.196 164.365C403.372 164.365 401.81 164.659 400.511 165.247C399.243 165.834 398.207 166.685 397.403 167.798C396.599 168.911 395.996 170.241 395.594 171.787C395.192 173.333 394.945 175.081 394.852 177.029V183.477C395.007 185.765 395.44 187.821 396.151 189.646C396.862 191.44 397.96 192.862 399.444 193.914C400.929 194.965 402.877 195.491 405.289 195.491C407.052 195.491 408.536 195.104 409.742 194.331C410.948 193.527 411.922 192.429 412.665 191.038C413.438 189.646 413.979 188.038 414.288 186.213C414.628 184.389 414.798 182.425 414.798 180.322ZM463.597 193.682V171.323C463.597 169.715 463.334 168.339 462.809 167.195C462.283 166.02 461.463 165.107 460.35 164.458C459.268 163.809 457.861 163.484 456.129 163.484C454.645 163.484 453.361 163.747 452.279 164.272C451.196 164.767 450.361 165.494 449.774 166.453C449.186 167.38 448.893 168.478 448.893 169.746H435.533C435.533 167.612 436.028 165.587 437.018 163.669C438.007 161.752 439.445 160.067 441.332 158.613C443.218 157.129 445.46 155.969 448.058 155.134C450.686 154.299 453.624 153.882 456.871 153.882C460.768 153.882 464.231 154.531 467.262 155.83C470.292 157.129 472.674 159.077 474.405 161.675C476.168 164.272 477.049 167.52 477.049 171.416V192.893C477.049 195.645 477.219 197.903 477.56 199.666C477.9 201.397 478.395 202.913 479.044 204.211V205H465.545C464.896 203.639 464.401 201.938 464.061 199.897C463.752 197.826 463.597 195.754 463.597 193.682ZM465.36 174.431L465.453 181.992H457.984C456.222 181.992 454.691 182.193 453.392 182.595C452.093 182.997 451.026 183.569 450.191 184.312C449.356 185.023 448.738 185.858 448.336 186.816C447.965 187.775 447.779 188.826 447.779 189.971C447.779 191.115 448.042 192.151 448.568 193.079C449.094 193.975 449.851 194.687 450.841 195.212C451.83 195.707 452.99 195.955 454.32 195.955C456.33 195.955 458.077 195.553 459.562 194.749C461.046 193.944 462.19 192.955 462.994 191.78C463.829 190.605 464.262 189.491 464.293 188.44L467.818 194.099C467.324 195.367 466.643 196.681 465.777 198.042C464.942 199.403 463.875 200.686 462.577 201.892C461.278 203.067 459.716 204.041 457.892 204.814C456.067 205.557 453.902 205.928 451.397 205.928C448.212 205.928 445.321 205.294 442.723 204.026C440.156 202.727 438.115 200.949 436.6 198.691C435.116 196.403 434.374 193.805 434.374 190.898C434.374 188.27 434.868 185.935 435.858 183.894C436.847 181.853 438.301 180.137 440.218 178.745C442.167 177.323 444.594 176.256 447.501 175.544C450.408 174.802 453.779 174.431 457.613 174.431H465.36Z" fill="#560808"/>
<path d="M50.8481 214.277H482.152V218.916H50.8481V214.277Z" fill="#560808"/>
<defs>
<clipPath id="clip0_5_34">
<rect width="261" height="157" fill="white" transform="translate(137)"/>
</clipPath>
<clipPath id="clip1_5_34">
<rect width="261" height="157" fill="white" transform="matrix(-1 0 0 -1 397 374)"/>
</clipPath>
</defs>
</svg>
